<svg xmlns="http://www.w3.org/2000/svg" viewBox="0 0 33.78 33.34"><g id="Layer_2" data-name="Layer 2"><g id="Layer_1-2" data-name="Layer 1"><polygon points="13.8 3.26 30.52 3.26 30.52 19.41 3.26 19.41 3.26 13.79 0 13.79 0 22.67 14.76 22.67 6.39 31.03 8.7 33.34 16.89 25.15 25.08 33.34 27.38 31.03 19.02 22.67 33.78 22.67 33.78 0 13.8 0 13.8 3.26"/><polygon points="2.78 12.12 6.3 8.6 9.81 12.12 12.12 9.81 8.6 6.3 12.12 2.78 9.81 0.48 6.3 3.99 2.78 0.48 0.48 2.78 3.99 6.3 0.48 9.81 2.78 12.12"/></g></g></svg>